HIERARCHY
ROOT SpineBase
{
  OFFSET 0.000000 0.000000 0.000000
  CHANNELS 6 Xposition Yposition Zposition Zrotation Xrotation Yrotation
  JOINT SpineMid
  {
    OFFSET 0.000000 25.469944 0.000000
    CHANNELS 3 Zrotation Xrotation Yrotation
    JOINT SpineShoulder
    {
      OFFSET 0.100325 18.938120 -0.796284
      CHANNELS 3 Zrotation Xrotation Yrotation
      JOINT Neck
      {
        OFFSET -0.011763 6.343483 -0.587100
        CHANNELS 3 Zrotation Xrotation Yrotation
        JOINT Head
        {
          OFFSET 1.887808 11.820798 -2.177665
          CHANNELS 3 Zrotation Xrotation Yrotation
          End Site
          {
            OFFSET 0 0 0
          }
        }
      }
      JOINT ShoulderLeft
      {
        OFFSET -13.463130 -0.588057 3.430073
        CHANNELS 3 Zrotation Xrotation Yrotation
        JOINT ElbowLeft
        {
          OFFSET -3.661017 -21.710815 -9.503964
          CHANNELS 3 Zrotation Xrotation Yrotation
          JOINT WristLeft
          {
            OFFSET 6.664377 -14.487077 -11.913194
            CHANNELS 3 Zrotation Xrotation Yrotation
            JOINT HandLeft
            {
              OFFSET 1.240273 -3.869425 -1.754528
              CHANNELS 3 Zrotation Xrotation Yrotation
              JOINT HandTipLeft
              {
                OFFSET 1.485185 -3.543071 -2.161599
                CHANNELS 3 Zrotation Xrotation Yrotation
                End Site
                {
                  OFFSET 0 0 0
                }
              }
              JOINT ThumbLeft
              {
                OFFSET -1.632086 0.316384 -4.960853
                CHANNELS 3 Zrotation Xrotation Yrotation
                End Site
                {
                  OFFSET 0 0 0
                }
              }
            }
          }
        }
      }
      JOINT ShoulderRight
      {
        OFFSET 14.007491 6.434493 -4.349144
        CHANNELS 3 Zrotation Xrotation Yrotation
        JOINT ElbowRight
        {
          OFFSET 2.303327 -16.694892 -5.639678
          CHANNELS 3 Zrotation Xrotation Yrotation
          JOINT WristRight
          {
            OFFSET -1.616635 -15.657665 -8.426764
            CHANNELS 3 Zrotation Xrotation Yrotation
            JOINT HandRight
            {
              OFFSET -0.330699 -0.684861 0.021778
              CHANNELS 3 Zrotation Xrotation Yrotation
              JOINT HandTipRight
              {
                OFFSET -0.091610 -1.055519 -1.450759
                CHANNELS 3 Zrotation Xrotation Yrotation
                End Site
                {
                  OFFSET 0 0 0
                }
              }
              JOINT ThumbRight
              {
                OFFSET -0.239190 0.729715 -2.064458
                CHANNELS 3 Zrotation Xrotation Yrotation
                End Site
                {
                  OFFSET 0 0 0
                }
              }
            }
          }
        }
      }
    }
  }
  JOINT HipLeft
  {
    OFFSET -8.135613 1.189844 -0.718731
    CHANNELS 3 Zrotation Xrotation Yrotation
    JOINT KneeLeft
    {
      OFFSET 10.866408 -19.670404 -8.366321
      CHANNELS 3 Zrotation Xrotation Yrotation
      JOINT AnkleLeft
      {
        OFFSET -0.682486 -29.825550 5.840936
        CHANNELS 3 Zrotation Xrotation Yrotation
        JOINT FootLeft
        {
          OFFSET -2.620313 -2.960728 -14.552099
          CHANNELS 3 Zrotation Xrotation Yrotation
          End Site
          {
            OFFSET 0 0 0
          }
        }
      }
    }
  }
  JOINT HipRight
  {
    OFFSET 7.492212 0.713795 -5.032971
    CHANNELS 3 Zrotation Xrotation Yrotation
    JOINT KneeRight
    {
      OFFSET -3.946442 -23.191842 -1.356776
      CHANNELS 3 Zrotation Xrotation Yrotation
      JOINT AnkleRight
      {
        OFFSET -28.641654 18.657990 2.237062
        CHANNELS 3 Zrotation Xrotation Yrotation
        JOINT FootRight
        {
          OFFSET 8.273623 -7.681092 -3.004038
          CHANNELS 3 Zrotation Xrotation Yrotation
          End Site
          {
            OFFSET 0 0 0
          }
        }
      }
    }
  }
}
MOTION
Frames: 12
Frame Time: 0.033333
31.099982 59.468979 342.145949 -0.000000 0.000000 15.432778 -0.000000 0.000000 -15.432778 -0.000000 0.000000 0.000000 -0.000000 0.000000 0.000000 0.000000 0.000000 0.000000 -0.000000 0.000000 0.000000 -0.000000 0.000000 0.000000 -0.000000 0.000000 0.000000 -0.000000 0.000000 0.000000 0.000000 0.000000 0.000000 0.000000 0.000000 0.000000 -0.000000 0.000000 0.000000 -0.000000 0.000000 0.000000 -0.000000 0.000000 0.000000 -0.000000 0.000000 0.000000 0.000000 0.000000 0.000000 0.000000 0.000000 0.000000 -0.000000 0.000000 -15.432778 -0.000000 0.000000 0.000000 -0.000000 0.000000 0.000000 0.000000 0.000000 0.000000 -0.000000 0.000000 -15.432778 -0.000000 0.000000 0.000000 -0.000000 0.000000 0.000000 0.000000 0.000000 0.000000
30.517454 59.619255 342.490035 -0.791581 -0.494253 15.370770 0.894284 0.266710 -15.376266 -0.000000 0.000000 0.000000 2.422640 -1.979069 0.804461 0.000000 0.000000 0.000000 0.915818 -3.040368 0.137990 -5.505283 -2.322983 1.324984 5.455753 1.802497 -3.134174 -5.722032 0.091599 3.381078 0.000000 0.000000 0.000000 0.000000 0.000000 0.000000 0.782065 0.438630 -0.206209 -0.780504 -0.441401 0.200208 3.174007 -8.557613 4.525863 -2.521043 8.770752 -4.094961 0.000000 0.000000 0.000000 0.000000 0.000000 0.000000 3.110234 -0.253608 -16.286312 -1.186328 -1.773304 1.170478 -1.044375 -0.204281 1.490186 0.000000 0.000000 0.000000 2.811906 0.614925 -15.638029 -1.752971 -0.851833 0.233976 -0.000000 0.000000 0.000000 0.000000 0.000000 0.000000
30.012375 59.742272 342.797669 -1.474327 -0.944360 15.347289 0.670098 0.092557 -15.393921 -0.195042 0.012259 -0.064627 5.299848 -2.681706 1.486762 0.000000 0.000000 0.000000 2.617856 -5.259213 0.481351 -10.228173 -4.663642 2.396090 9.501521 3.517664 -5.886604 -8.976864 0.133910 5.729683 0.000000 0.000000 0.000000 0.000000 0.000000 0.000000 2.631025 1.549604 -0.350898 -2.731823 -1.181784 1.029785 11.445378 -9.384861 5.359536 -9.504208 10.430164 -4.320803 0.000000 0.000000 0.000000 0.000000 0.000000 0.000000 6.599794 -0.030009 -17.000265 -2.957244 -3.748066 2.074860 -1.657437 -1.826304 3.711060 0.000000 0.000000 0.000000 5.249220 1.196051 -15.886354 -3.257160 -1.626602 0.419479 0.932064 0.197406 -0.152070 0.000000 0.000000 0.000000
29.584744 59.838029 343.068850 -2.049061 -1.350380 15.367823 0.907473 0.138491 -15.441965 -0.254874 0.026409 -0.089071 7.055733 -3.286763 1.949999 0.000000 0.000000 0.000000 3.429682 -7.721055 0.881468 -14.035615 -6.739184 3.136681 12.128783 4.949950 -8.030670 -10.320575 0.369500 7.144183 0.000000 0.000000 0.000000 0.000000 0.000000 0.000000 3.872453 2.281981 -0.570214 -4.203696 -1.818015 1.570856 17.403573 0.523301 -0.832998 -15.581248 -0.311246 -0.366590 0.000000 0.000000 0.000000 0.000000 0.000000 0.000000 10.542071 0.641097 -17.644668 -5.315144 -6.065110 2.716866 -1.744642 -5.209494 6.988006 0.000000 0.000000 0.000000 7.309046 1.738300 -16.171420 -4.509162 -2.319366 0.564219 1.398663 0.292352 -0.232413 0.000000 0.000000 0.000000
29.234562 59.906527 343.303580 -2.516954 -1.712606 15.436391 1.078040 0.182134 -15.537875 -0.291558 0.045120 -0.108884 8.329694 -3.522303 2.244657 0.000000 0.000000 0.000000 3.920709 -10.090362 1.373412 -16.884366 -8.342378 3.520467 13.327722 5.980848 -9.377863 -10.127128 0.896871 7.688534 0.000000 0.000000 0.000000 0.000000 0.000000 0.000000 5.070522 2.987624 -0.816510 -5.746564 -2.486536 2.126269 19.688976 9.957066 -7.696165 -16.060976 -11.156293 3.090154 0.000000 0.000000 0.000000 0.000000 0.000000 0.000000 15.027607 1.753244 -18.288333 -8.303912 -8.835635 3.056061 -0.918648 -11.027957 11.973319 0.000000 0.000000 0.000000 8.991245 2.238964 -16.486476 -5.507607 -2.926950 0.675287 1.865786 0.384785 -0.315610 0.000000 0.000000 0.000000
28.961828 59.947766 343.501857 -2.879454 -2.031508 15.555395 1.181333 0.222556 -15.682220 -0.306236 0.067949 -0.124447 9.175094 -3.436013 2.384018 0.000000 0.000000 0.000000 4.092856 -12.384551 1.949230 -18.795780 -9.355286 3.543387 13.123645 6.535588 -9.810650 -8.633114 1.734095 7.368873 0.000000 0.000000 0.000000 0.000000 0.000000 0.000000 6.228912 3.667440 -1.088377 -7.360657 -3.188822 2.693453 20.373694 15.191539 -11.747151 -14.461013 -17.032373 5.292808 0.000000 0.000000 0.000000 0.000000 0.000000 0.000000 20.157949 3.312279 -19.007192 -12.002799 -12.148586 3.002341 1.909178 -20.213550 19.989690 0.000000 0.000000 0.000000 10.297445 2.697673 -16.824506 -6.252423 -3.447492 0.758888 2.333543 0.474694 -0.401652 0.000000 0.000000 0.000000
28.632069 59.920319 343.711445 -3.311727 -2.398660 16.245152 1.303599 0.292480 -16.404311 -0.291872 0.099934 -0.140684 8.834638 -2.467525 2.085069 0.000000 0.000000 0.000000 3.891661 -14.830908 2.709064 -19.746304 -9.933979 2.854218 11.041603 7.146445 -8.595224 -6.080291 0.578328 5.139759 0.000000 0.000000 0.000000 0.000000 0.000000 0.000000 7.883106 4.437906 -1.537414 -9.860680 -4.109475 3.565671 20.620264 18.451391 -14.507985 -12.060227 -20.432015 6.999138 0.000000 0.000000 0.000000 0.000000 0.000000 0.000000 27.320771 5.097023 -20.668459 -17.388453 -16.582086 2.542974 15.338935 -38.667212 42.535956 0.000000 0.000000 0.000000 11.834555 2.890817 -17.724625 -7.158440 -3.844072 0.825980 2.874536 0.573571 -0.506344 0.000000 0.000000 0.000000
28.474077 59.922628 343.881024 -3.525155 -2.686839 16.428045 1.318555 0.375820 -16.608670 -0.247631 0.138473 -0.148453 8.978994 -1.783783 1.959939 0.000000 0.000000 0.000000 3.210315 -17.343769 3.563672 -19.600526 -9.529104 1.666232 8.273082 6.827677 -6.824971 -1.278855 3.216713 2.538946 0.000000 0.000000 0.000000 0.000000 0.000000 0.000000 8.935761 5.091120 -1.837418 -11.591042 -4.965876 4.125855 20.813212 19.901065 -15.833505 -10.567790 -21.735679 7.840675 0.000000 0.000000 0.000000 0.000000 0.000000 0.000000 34.654701 7.682273 -21.898898 -23.341933 -21.471032 1.017339 41.625647 -49.463845 76.137648 0.000000 0.000000 0.000000 12.639747 3.335622 -18.093993 -7.551949 -4.270689 0.879539 3.312373 0.643947 -0.600767 0.000000 0.000000 0.000000
28.479320 59.716072 343.948382 -3.521593 -2.852603 16.233362 1.175210 0.382643 -16.422557 -0.194568 0.164519 -0.151492 8.990709 -0.799167 1.758280 0.000000 0.000000 0.000000 2.446770 -19.084971 4.229015 -18.962130 -8.776387 0.546653 3.835356 4.226490 -4.609053 4.968048 3.957396 -2.857254 0.000000 0.000000 0.000000 0.000000 0.000000 0.000000 9.703945 5.711062 -2.088796 -12.939951 -5.734784 4.525067 21.542832 20.612385 -16.713129 -10.125773 -22.388449 8.201271 0.000000 0.000000 0.000000 0.000000 0.000000 0.000000 42.421921 10.444644 -23.259078 -30.413638 -26.273433 -1.389838 69.491354 -48.201196 109.641445 0.000000 0.000000 0.000000 12.581387 4.016999 -18.030808 -7.312143 -4.710275 0.921371 3.987441 0.753672 -0.744663 0.000000 0.000000 0.000000
28.663751 59.925100 343.892152 -3.326943 -2.876632 16.072742 0.952369 0.349108 -16.255586 -0.160055 0.177716 -0.149748 8.749116 0.393494 1.474851 0.000000 0.000000 0.000000 1.732503 -20.944865 4.835785 -18.567812 -7.475524 0.158562 0.008208 1.622057 -2.972649 8.254924 8.339252 -3.107908 0.000000 0.000000 0.000000 0.000000 0.000000 0.000000 10.755263 6.139419 -2.510440 -14.905187 -6.354873 5.148255 23.421292 20.750945 -17.635334 -10.713497 -22.823984 8.218837 0.000000 0.000000 0.000000 0.000000 0.000000 0.000000 46.047363 12.620434 -23.830017 -34.237938 -28.733303 -3.655147 69.343725 -48.784597 108.668265 0.000000 0.000000 0.000000 11.943700 4.427381 -17.873929 -6.795692 -4.859392 0.929629 4.093534 0.768222 -0.769933 0.000000 0.000000 0.000000
28.862467 60.075169 343.949871 -3.084313 -2.947739 15.971699 0.743182 0.335407 -16.145600 -0.149602 0.207667 -0.146820 8.275233 1.273422 1.227940 0.000000 0.000000 0.000000 1.159450 -22.483530 5.316015 -18.553856 -6.562244 0.103362 -0.897553 2.953299 -1.442838 8.587914 6.346594 -4.061987 0.000000 0.000000 0.000000 0.000000 0.000000 0.000000 10.570395 6.388204 -2.470566 -14.699531 -6.560579 5.039234 23.533375 20.917186 -17.732973 -10.852872 -22.938287 8.226537 0.000000 0.000000 0.000000 0.000000 0.000000 0.000000 49.565475 15.512199 -24.454990 -37.962310 -31.760623 -6.658807 71.606573 -48.732961 110.561252 0.000000 0.000000 0.000000 11.129597 4.990650 -17.778778 -6.106029 -5.069642 0.944081 4.196444 0.779721 -0.797039 0.000000 0.000000 0.000000
29.197392 60.445618 343.889953 -2.645149 -2.872398 16.053577 0.457151 0.281512 -16.203687 -0.157262 0.254800 -0.137913 7.464575 1.849830 0.998401 0.000000 0.000000 0.000000 0.730595 -23.545073 5.590434 -18.720244 -5.805492 0.473738 -1.167929 4.212972 -0.581665 9.346131 5.394968 -4.923575 0.000000 0.000000 0.000000 0.000000 0.000000 0.000000 9.140871 6.379470 -1.977252 -12.485623 -6.404312 4.256574 22.236621 21.147748 -17.151111 -10.765054 -22.854952 8.217414 0.000000 0.000000 0.000000 0.000000 0.000000 0.000000 49.699847 17.762224 -24.288669 -38.641073 -33.338543 -8.725478 44.103303 -51.776826 75.074824 0.000000 0.000000 0.000000 9.880275 5.171852 -17.739164 -5.292967 -4.957118 0.919727 3.913513 0.735115 -0.735511 0.000000 0.000000 0.000000
